<svg xmlns="http://www.w3.org/2000/svg" viewBox="0 0 1290 2796" role="img" aria-labelledby="title desc">
  <title id="title">Remote Input launch screen</title>
  <desc id="desc">Light launch screen with the Remote Input icon centered for iOS home screen startup.</desc>
  <defs>
    <radialGradient id="bg" cx="50%" cy="10%" r="85%">
      <stop offset="0" stop-color="#dbeafe"/>
      <stop offset="0.55" stop-color="#f7f8fb"/>
      <stop offset="1" stop-color="#eff6ff"/>
    </radialGradient>
    <filter id="shadow" x="-35%" y="-35%" width="170%" height="170%">
      <feDropShadow dx="0" dy="28" stdDeviation="42" flood-color="#0f172a" flood-opacity="0.18"/>
    </filter>
  </defs>
  <rect width="1290" height="2796" fill="url(#bg)"/>
  <g transform="translate(393 1046)" filter="url(#shadow)">
    <rect width="504" height="504" rx="112" fill="#f8fafc"/>
    <rect x="86" y="118" width="332" height="268" rx="76" fill="#ffffff" stroke="#dbeafe" stroke-width="10"/>
    <rect x="146" y="174" width="212" height="62" rx="24" fill="#0f172a"/>
    <path d="M310 202l76 36-56 22 28 62-32 14-28-62-46 42 58-114Z" fill="#f8fafc" stroke="#2563eb" stroke-width="9" stroke-linejoin="round"/>
    <rect x="166" y="282" width="172" height="50" rx="24" fill="#2563eb"/>
    <rect x="158" y="252" width="44" height="27" rx="11" fill="#94a3b8"/>
    <rect x="220" y="252" width="44" height="27" rx="11" fill="#94a3b8"/>
    <rect x="282" y="252" width="44" height="27" rx="11" fill="#94a3b8"/>
  </g>
  <text x="645" y="1666" text-anchor="middle" font-family="-apple-system, BlinkMacSystemFont, 'Segoe UI', sans-serif" font-size="54" font-weight="700" letter-spacing="-1.5" fill="#0f172a">Remote Input</text>
  <text x="645" y="1738" text-anchor="middle" font-family="-apple-system, BlinkMacSystemFont, 'Segoe UI', sans-serif" font-size="30" font-weight="500" fill="#64748b">Ready for keyboard and touch control</text>
</svg>
